<svg xmlns="http://www.w3.org/2000/svg" width="131" height="131" viewBox="0 0 131 131">
  <defs>
    <style>
      .cls-1 {
        fill: #04b604;
      }

      .cls-2 {
        fill: #fff;
        fill-rule: evenodd;
      }
    </style>
  </defs>
  <circle class="cls-1" cx="65.5" cy="65.5" r="65.5"/>
  <path class="cls-2" d="M990.208,2700.03a2.166,2.166,0,0,0-2.284,3.68,8.012,8.012,0,0,1,0,13.58l-35.4,22.14a7.98,7.98,0,0,1-12.207-6.79v-44.28a7.98,7.98,0,0,1,12.207-6.79l20.608,12.88a2.144,2.144,0,0,0,2.974-.69,2.167,2.167,0,0,0-.69-2.98l-20.608-12.89A12.3,12.3,0,0,0,936,2688.36v44.28a12.266,12.266,0,0,0,18.807,10.47l35.4-22.14A12.36,12.36,0,0,0,990.208,2700.03Z" transform="translate(-895 -2644)"/>
</svg>
